<svg width="14" height="14" viewBox="0 0 14 14" fill="none" xmlns="http://www.w3.org/2000/svg">
<g id="check">
<path id="Shape" d="M7 0C3.15 0 0 3.15 0 7C0 10.85 3.15 14 7 14C10.85 14 14 10.85 14 7C14 3.15 10.85 0 7 0Z" fill="#041E3A"/>
<path id="Path" d="M10.1937 4.50727L5.6875 9.00436L3.80625 7.15262C3.63125 6.97626 3.36875 6.97626 3.19375 7.15262C3.01875 7.32897 3.01875 7.59351 3.19375 7.76986L5.38125 9.93023C5.55625 10.1066 5.81875 10.1066 5.99375 9.93023L10.8063 5.12452C10.9813 4.94816 10.9813 4.68362 10.8063 4.50727C10.6313 4.33091 10.3688 4.33091 10.1937 4.50727Z" fill="white"/>
</g>
</svg>
