<svg width="23" height="23" viewBox="0 0 23 23" fill="none" xmlns="http://www.w3.org/2000/svg">
<g id="Social/Facebook">
<path id="Fill 1" fill-rule="evenodd" clip-rule="evenodd" d="M18.8335 3.12549H4.167C3.799 3.12549 3.5 3.42399 3.5 3.79199V18.459C3.5 18.827 3.799 19.1255 4.167 19.1255H12V13.1255H10V10.6255H12V8.62549C12 6.55899 13.3085 5.54199 15.152 5.54199C16.035 5.54199 16.794 5.60799 17.0155 5.63699V7.79699L15.737 7.79749C14.734 7.79749 14.5 8.27399 14.5 8.97299V10.6255H17L16.5 13.1255H14.5L14.54 19.1255H18.8335C19.2015 19.1255 19.5 18.827 19.5 18.459V3.79199C19.5 3.42399 19.2015 3.12549 18.8335 3.12549Z" fill="#041E3A"/>
</g>
</svg>
