<svg width="17" height="17" viewBox="0 0 17 17" fill="none" xmlns="http://www.w3.org/2000/svg">
<g id="Group">
<g id="Vector">
<path fill-rule="evenodd" clip-rule="evenodd" d="M8.49975 0.125488C6.32746 0.125488 6.0551 0.135036 5.20186 0.173728C4.35013 0.21242 3.76874 0.347592 3.25971 0.545576C2.7336 0.750092 2.28738 1.02345 1.84267 1.46816C1.39796 1.91287 1.1241 2.35909 0.920087 2.8852C0.722104 3.39423 0.586932 3.97562 0.54824 4.82685C0.509547 5.68059 0.5 5.95294 0.5 8.12524C0.5 10.298 0.509547 10.5709 0.54824 11.4236C0.586932 12.2754 0.722104 12.8567 0.920087 13.3658C1.1241 13.8919 1.39796 14.3381 1.84267 14.7828C2.28738 15.2275 2.7336 15.5009 3.25971 15.7054C3.76874 15.9034 4.35013 16.0386 5.20186 16.0772C6.0551 16.1164 6.32746 16.1255 8.49975 16.1255C10.6725 16.1255 10.9449 16.1164 11.7981 16.0772C12.6499 16.0386 13.2313 15.9034 13.7403 15.7054C14.2664 15.5009 14.7121 15.2275 15.1573 14.7828C15.602 14.3381 15.8759 13.8919 16.0799 13.3658C16.2779 12.8567 16.4131 12.2754 16.4518 11.4236C16.4905 10.5709 16.5 10.298 16.5 8.12524C16.5 5.95294 16.4905 5.68059 16.4518 4.82685C16.4131 3.97562 16.2779 3.39423 16.0799 2.8852C15.8759 2.35909 15.602 1.91287 15.1573 1.46816C14.7121 1.02345 14.2664 0.750092 13.7403 0.545576C13.2313 0.347592 12.6499 0.21242 11.7981 0.173728C10.9449 0.135036 10.6725 0.125488 8.49975 0.125488ZM8.49975 1.56715C10.6359 1.56715 10.8891 1.57519 11.7328 1.61338C12.5127 1.64906 12.9363 1.77971 13.2182 1.88925C13.5915 2.03397 13.8579 2.20783 14.1383 2.48773C14.4177 2.76762 14.591 3.03394 14.7362 3.40729C14.8458 3.6892 14.9764 4.1128 15.0121 4.89267C15.0503 5.73637 15.0588 5.98912 15.0588 8.12524C15.0588 10.2614 15.0503 10.5146 15.0121 11.3583C14.9764 12.1382 14.8458 12.5618 14.7362 12.8437C14.591 13.217 14.4177 13.4834 14.1383 13.7638C13.8579 14.0436 13.5915 14.2165 13.2182 14.3622C12.9363 14.4713 12.5127 14.6019 11.7328 14.6376C10.8891 14.6758 10.6364 14.6843 8.49975 14.6843C6.36364 14.6843 6.11088 14.6758 5.26719 14.6376C4.48731 14.6019 4.06371 14.4713 3.78181 14.3622C3.40845 14.2165 3.14213 14.0436 2.86173 13.7638C2.58235 13.4834 2.40848 13.217 2.26376 12.8437C2.15372 12.5618 2.02357 12.1382 1.98789 11.3583C1.9497 10.5146 1.94116 10.2614 1.94116 8.12524C1.94116 5.98912 1.9497 5.73637 1.98789 4.89267C2.02357 4.1128 2.15372 3.6892 2.26376 3.40729C2.40848 3.03394 2.58235 2.76762 2.86173 2.48773C3.14213 2.20783 3.40845 2.03397 3.78181 1.88925C4.06371 1.77971 4.48731 1.64906 5.26719 1.61338C6.11088 1.57519 6.36364 1.56715 8.49975 1.56715Z" fill="#041E3A"/>
<path fill-rule="evenodd" clip-rule="evenodd" d="M8.49975 10.7922C7.02693 10.7922 5.833 9.59831 5.833 8.12549C5.833 6.65267 7.02693 5.45874 8.49975 5.45874C9.97307 5.45874 11.167 6.65267 11.167 8.12549C11.167 9.59831 9.97307 10.7922 8.49975 10.7922ZM8.49975 4.01758C6.23098 4.01758 4.39184 5.85672 4.39184 8.12549C4.39184 10.3943 6.23098 12.2334 8.49975 12.2334C10.769 12.2334 12.6082 10.3943 12.6082 8.12549C12.6082 5.85672 10.769 4.01758 8.49975 4.01758Z" fill="#041E3A"/>
<path fill-rule="evenodd" clip-rule="evenodd" d="M13.7303 3.85492C13.7303 4.38505 13.3007 4.81519 12.7706 4.81519C12.2399 4.81519 11.8103 4.38505 11.8103 3.85492C11.8103 3.32478 12.2399 2.89515 12.7706 2.89515C13.3007 2.89515 13.7303 3.32478 13.7303 3.85492Z" fill="#041E3A"/>
</g>
</g>
</svg>
