<svg width="23" height="23" viewBox="0 0 23 23" fill="none" xmlns="http://www.w3.org/2000/svg">
<g id="Social/Pinterest">
<path id="Fill 4" fill-rule="evenodd" clip-rule="evenodd" d="M11.5 3.12549C7.082 3.12549 3.5 6.70749 3.5 11.1255C3.5 14.5145 5.6085 17.4095 8.5845 18.575C8.5145 17.942 8.4515 16.971 8.6125 16.28C8.7575 15.656 9.5505 12.3035 9.5505 12.3035C9.5505 12.3035 9.311 11.8245 9.311 11.116C9.311 10.0035 9.956 9.17299 10.7585 9.17299C11.441 9.17299 11.771 9.68549 11.771 10.3C11.771 10.9865 11.334 12.0125 11.1085 12.9635C10.92 13.76 11.5075 14.4095 12.293 14.4095C13.715 14.4095 14.808 12.91 14.808 10.746C14.808 8.83049 13.4315 7.49099 11.4665 7.49099C9.19 7.49099 7.854 9.19849 7.854 10.963C7.854 11.6505 8.1185 12.3875 8.449 12.7885C8.5145 12.868 8.524 12.9375 8.5045 13.018C8.444 13.271 8.309 13.814 8.2825 13.9255C8.2475 14.072 8.1665 14.103 8.015 14.032C7.016 13.567 6.391 12.1065 6.391 10.933C6.391 8.40949 8.2245 6.09199 11.677 6.09199C14.452 6.09199 16.609 8.06949 16.609 10.7125C16.609 13.4695 14.8705 15.6885 12.4575 15.6885C11.647 15.6885 10.885 15.267 10.624 14.77C10.624 14.77 10.223 16.297 10.1255 16.6715C9.945 17.366 9.4575 18.2375 9.1315 18.7685C9.88 19.0005 10.6755 19.1255 11.5 19.1255C15.918 19.1255 19.5 15.5435 19.5 11.1255C19.5 6.70749 15.918 3.12549 11.5 3.12549Z" fill="#041E3A"/>
</g>
</svg>
