<svg width="41" height="41" viewBox="0 0 41 41" fill="none" xmlns="http://www.w3.org/2000/svg">
<g id="reshot-icon-home-PR9H7UM8XQ 1">
<path id="Vector" d="M11.0652 30.8163H29.9345C30.0845 30.8163 30.2283 30.7567 30.3344 30.6507C30.4404 30.5446 30.5 30.4008 30.5 30.2508V16.904C30.5 16.8158 30.4794 16.7288 30.4398 16.65C30.4003 16.5713 30.3428 16.5028 30.272 16.4502L20.8374 9.43322C20.7399 9.36062 20.6216 9.32141 20.5 9.32141C20.3784 9.32141 20.2601 9.36062 20.1626 9.43322L10.728 16.4518C10.6572 16.5044 10.5997 16.5729 10.5602 16.6517C10.5206 16.7305 10.5 16.8174 10.5 16.9056V30.2521C10.5004 30.4018 10.5601 30.5453 10.666 30.6511C10.772 30.7568 10.9155 30.8162 11.0652 30.8163ZM22.6952 29.6853H18.3032V23.1071H22.6952V29.6853ZM11.6315 17.1882L20.4999 10.5905L29.369 17.1882V29.6853H23.8262V22.5416C23.8262 22.3916 23.7666 22.2478 23.6606 22.1418C23.5545 22.0357 23.4107 21.9761 23.2607 21.9761H17.738C17.588 21.9761 17.4442 22.0357 17.3381 22.1418C17.232 22.2478 17.1725 22.3916 17.1725 22.5416V29.6853H11.6307L11.6315 17.1882Z" fill="#041E3A"/>
</g>
</svg>
