<svg width="17" height="17" viewBox="0 0 17 17" fill="none" xmlns="http://www.w3.org/2000/svg">
<g id="Social/TwitterX" clip-path="url(#clip0_2249_146705)">
<path id="Vector" d="M9.61264 7.18774L15.5379 15.6255H15.5341L14.9746 14.8424L9.6919 7.44856L9.69189 7.44855L9.05899 6.56278L9.05898 6.56276L4.99503 0.874568L4.84547 0.665232H4.5882H2.42015H1.48998L1.46207 0.625488H5.00452L8.98597 6.29538L9.35112 6.81538L9.35114 6.81536L9.61264 7.18774ZM11.9929 15.4237L12.137 15.6255H11.9955L7.7824 9.62596L7.41725 9.10598L6.99771 9.58317L1.68538 15.6255H1.6054L7.12206 9.35111L7.38187 9.05562L7.15575 8.73362L3.87276 4.05844L7.04913 8.50421L7.04914 8.50422L7.58887 9.2596V9.25994L7.68204 9.39034L11.9929 15.4237ZM14.8732 0.625488L9.796 6.4004H9.71598L9.77067 6.33819L14.7932 0.625488H14.8732Z" stroke="#041E3A"/>
</g>
<defs>
<clipPath id="clip0_2249_146705">
<rect width="16" height="16" fill="white" transform="translate(0.5 0.125488)"/>
</clipPath>
</defs>
</svg>
