<svg width="23" height="16" viewBox="0 0 23 16" fill="none" xmlns="http://www.w3.org/2000/svg">
<g id="Group 2286">
<path id="Fill 3" fill-rule="evenodd" clip-rule="evenodd" d="M9.22848 10.8784L9.22779 4.91475L15.1719 7.90683L9.22848 10.8784ZM22.28 3.88138C22.28 3.88138 22.0648 2.41884 21.4055 1.77479C20.5688 0.9291 19.6311 0.925121 19.2014 0.875374C16.1227 0.661133 11.5048 0.661133 11.5048 0.661133H11.4952C11.4952 0.661133 6.87725 0.661133 3.79862 0.875374C3.36825 0.925121 2.43119 0.9291 1.5945 1.77479C0.9345 2.41884 0.72 3.88138 0.72 3.88138C0.72 3.88138 0.5 5.5993 0.5 7.31654V8.927C0.5 10.6442 0.72 12.3622 0.72 12.3622C0.72 12.3622 0.9345 13.8247 1.5945 14.4688C2.43119 15.3144 3.52981 15.2872 4.02 15.3761C5.78 15.5386 11.5 15.5897 11.5 15.5897C11.5 15.5897 16.1227 15.5824 19.2014 15.3682C19.6311 15.3184 20.5688 15.3144 21.4055 14.4688C22.0648 13.8247 22.28 12.3622 22.28 12.3622C22.28 12.3622 22.5 10.6442 22.5 8.927V7.31654C22.5 5.5993 22.28 3.88138 22.28 3.88138Z" fill="#041E3A"/>
</g>
</svg>
